#!OML:ASF F:\VICON\USERDATA\INSTALL\SteveWalk\SteveWalk.ASF
:FULLY-SPECIFIED
:DEGREES
228
root 0.191117 16.1146 2.97057 16.3722 4.97379 -1.37636
lowerback -14.3495 -1.72019 4.09693
upperback -5.03422 -2.92448 2.57691
thorax 2.64883 -1.45809 -0.0880098
lowerneck -5.25568 -0.249378 0.456942
upperneck 8.01197 -0.0564493 -3.69025
head 3.52598 -0.166908 -1.29876
rclavicle -1.39957e-014 -3.18055e-015
rhumerus -73.2893 -42.484 -25.6837
rradius 12.0656
rwrist 43.9794
rhand -14.5325 -35.8389
rfingers 7.12502
rthumb 11.6156 -65.4969
lclavicle -1.39957e-014 -3.18055e-015
lhumerus -29.0554 1.30228 84.5781
lradius 53.1726
lwrist 13.8639
lhand -23.7627 -16.9249
lfingers 7.12502
lthumb 2.7065 13.0377
rfemur -46.3736 0.327854 25.1847
rtibia 38.7791
rfoot -10.6054 3.44289
rtoes -13.569
lfemur -14.2122 -0.371786 -17.7957
ltibia 58.2452
lfoot 20.8287 -14.9755
ltoes -22.0922
229
root 0.189789 16.1433 3.17818 16.3237 5.00317 -1.53887
lowerback -14.4453 -1.652 4.21015
upperback -4.9832 -2.86106 2.65823
thorax 2.75408 -1.42394 -0.0607326
lowerneck -5.30338 -0.274095 0.510023
upperneck 8.11536 -0.0798061 -3.81644
head 3.57177 -0.183532 -1.35307
rclavicle -3.09048e-015 1.74931e-014
rhumerus -71.51 -42.8822 -27.7785
rradius 12.0977
rwrist 42.8571
rhand -14.5393 -35.3166
rfingers 7.12502
rthumb 11.609 -64.975
lclavicle -3.09048e-015 1.74931e-014
lhumerus -29.3122 1.6888 84.8169
lradius 51.4316
lwrist 14.0851
lhand -22.0977 -18.4139
lfingers 7.12502
lthumb 4.31441 11.5221
rfemur -45.5191 0.14216 25.558
rtibia 38.8764
rfoot -11.4082 3.39341
rtoes -14.2603
lfemur -15.8211 -0.301955 -17.5907
ltibia 60.7834
lfoot 21.2638 -14.59
ltoes -23.5973
230
root 0.191505 16.173 3.38517 16.2376 5.07709 -1.88076
lowerback -14.4438 -1.53842 4.55242
upperback -4.94941 -2.76371 2.76429
thorax 2.77939 -1.37537 -0.12613
lowerneck -5.47974 -0.303184 0.497284
upperneck 8.28133 -0.109224 -3.84052
head 3.66374 -0.202866 -1.36402
rclavicle -2.259e-014 -1.66979e-014
rhumerus -68.84 -42.6676 -31.2968
rradius 12.3513
rwrist 40.4706
rhand -14.4663 -35.1024
rfingers 7.12502
rthumb 11.6795 -64.7568
lclavicle -2.259e-014 -1.66979e-014
lhumerus -29.5091 1.84863 85.1301
lradius 49.733
lwrist 13.8703
lhand -21.4834 -18.9842
lfingers 7.12502
lthumb 4.90756 10.939
rfemur -44.5318 -0.213357 26.2008
rtibia 38.8833
rfoot -12.4378 3.28611
rtoes -15.4403
lfemur -17.4271 -0.106672 -17.1676
ltibia 63.1905
lfoot 21.2756 -13.8892
ltoes -21.9796
231
root 0.197415 16.2004 3.55679 16.4461 6.0804 -2.28193
lowerback -14.3258 -1.64376 5.17379
upperback -5.13892 -2.97303 2.92838
thorax 2.48352 -1.48913 -0.325915
lowerneck -5.65034 -0.32218 0.400278
upperneck 8.54861 -0.118208 -3.81713
head 3.79066 -0.213812 -1.34445
rclavicle 1.67787e-014 -2.38542e-014
rhumerus -64.8817 -41.4239 -36.9311
rradius 12.9004
rwrist 36.3351
rhand -14.5304 -35.4109
rfingers 7.12502
rthumb 11.6177 -65.0689
lclavicle 1.67787e-014 -2.38542e-014
lhumerus -29.7067 1.96468 85.5414
lradius 48.0883
lwrist 13.0598
lhand -21.6354 -18.5209
lfingers 7.12502
lthumb 4.76084 11.4056
rfemur -43.9771 -1.51703 27.143
rtibia 38.8388
rfoot -13.4522 3.30449
rtoes -15.8748
lfemur -19.8888 -0.682581 -16.4729
ltibia 65.5982
lfoot 20.5521 -12.7573
ltoes -18.779
232
root 0.187429 16.2255 3.74874 16.5535 6.02759 -2.41806
lowerback -14.3138 -1.49843 5.1329
upperback -5.23087 -2.77173 2.99653
thorax 2.39385 -1.3913 -0.19808
lowerneck -5.63882 -0.347032 0.354117
upperneck 8.75185 -0.141411 -3.81067
head 3.85945 -0.22853 -1.33783
rclavicle 1.17834e-014 -6.36111e-015
rhumerus -61.725 -40.2582 -41.4106
rradius 13.3214
rwrist 33.2219
rhand -14.8396 -34.937
rfingers 7.12502
rthumb 11.3194 -64.6116
lclavicle 1.17834e-014 -6.36111e-015
lhumerus -30.0071 2.08703 85.8882
lradius 46.4297
lwrist 12.1285
lhand -21.559 -18.2062
lfingers 7.12502
lthumb 4.83457 11.7187
rfemur -43.3023 -1.60722 27.4674
rtibia 38.8117
rfoot -14.3018 3.13675
rtoes -16.6133
lfemur -21.8805 -0.382724 -16.2917
ltibia 67.7104
lfoot 18.2684 -11.9901
ltoes -17.767
233
root 0.18842 16.2564 3.94418 16.5558 5.98643 -2.28771
lowerback -14.2194 -1.40339 4.96183
upperback -5.29171 -2.61087 2.94143
thorax 2.29113 -1.31338 -0.13103
lowerneck -5.44591 -0.418979 0.383814
upperneck 8.72908 -0.239534 -3.84837
head 3.81106 -0.275614 -1.35848
rclavicle 1.33815e-014 2.14687e-014
rhumerus -59.7848 -40.0057 -43.8022
rradius 13.509
rwrist 31.9832
rhand -15.1251 -33.8751
rfingers 7.12502
rthumb 11.0441 -63.5646
lclavicle 1.33815e-014 2.14687e-014
lhumerus -30.3836 2.10809 86.2273
lradius 44.6479
lwrist 11.8308
lhand -21.4025 -18.6421
lfingers 7.12502
lthumb 4.98576 11.2793
rfemur -42.4541 -1.84594 27.4586
rtibia 38.7436
rfoot -15.1237 3.04639
rtoes -17.3738
lfemur -23.391 -0.279923 -16.4863
ltibia 69.5017
lfoot 15.2107 -11.1568
ltoes -17.0008
234
root 0.174165 16.2775 4.13437 16.7773 5.51208 -1.7867
lowerback -14.4187 -1.27794 4.08509
upperback -5.31039 -2.33676 2.84626
thorax 2.42365 -1.169 0.296992
lowerneck -5.32262 -0.52072 0.384715
upperneck 8.67058 -0.372835 -3.91678
head 3.76304 -0.342671 -1.38596
rclavicle -1.10601e-014 7.95139e-016
rhumerus -57.7743 -40.0542 -45.9599
rradius 13.6568
rwrist 30.8636
rhand -15.2457 -32.9742
rfingers 7.12502
rthumb 10.9278 -62.6698
lclavicle -1.10601e-014 7.95139e-016
lhumerus -30.5396 2.09704 86.6519
lradius 42.6512
lwrist 11.8676
lhand -21.4051 -18.9583
lfingers 7.12502
lthumb 4.98322 10.9631
rfemur -41.857 -1.45969 26.8747
rtibia 38.6229
rfoot -15.5707 3.00425
rtoes -15.8335
lfemur -25.2175 0.156013 -17.1657
ltibia 71.0663
lfoot 12.6829 -10.2178
ltoes -16.172
235
root 0.170678 16.3035 4.32433 16.8927 5.36729 -1.94774
lowerback -14.6012 -1.1075 4.10646
upperback -5.30821 -2.12784 2.89954
thorax 2.52951 -1.06287 0.369719
lowerneck -5.39531 -0.542568 0.364604
upperneck 8.84351 -0.389944 -3.96076
head 3.83815 -0.356221 -1.40128
rclavicle 2.39383e-014 -1.59028e-014
rhumerus -54.5341 -38.5521 -50.2886
rradius 14.2014
rwrist 27.5452
rhand -15.2995 -32.6063
rfingers 7.12502
rthumb 10.8759 -62.3046
lclavicle 2.39383e-014 -1.59028e-014
lhumerus -30.6714 2.24047 86.9803
lradius 40.6641
lwrist 11.3544
lhand -21.2758 -18.8423
lfingers 7.12502
lthumb 5.10805 11.0761
rfemur -41.1063 -1.4515 27.1176
rtibia 38.4195
rfoot -16.0911 3.38489
rtoes -12.8416
lfemur -27.1607 0.554316 -17.0964
ltibia 72.4908
lfoot 10.4768 -9.0586
ltoes -14.662
236
root 0.169418 16.3318 4.52323 16.8772 5.36428 -2.18597
lowerback -14.8016 -0.981682 4.26955
upperback -5.24862 -2.00173 2.94968
thorax 2.69781 -0.997225 0.346181
lowerneck -5.2014 -0.548037 0.32561
upperneck 8.79186 -0.39923 -3.93601
head 3.78124 -0.358548 -1.38357
rclavicle -4.73949e-014 2.94201e-014
rhumerus -51.0356 -35.8872 -55.4801
rradius 15.1822
rwrist 23.1449
rhand -15.3508 -33.0495
rfingers 7.12502
rthumb 10.8264 -62.7505
lclavicle -4.73949e-014 2.94201e-014
lhumerus -30.948 2.51179 87.1418
lradius 38.7511
lwrist 10.6004
lhand -20.9319 -18.8349
lfingers 7.12502
lthumb 5.44009 11.0753
rfemur -40.1563 -1.51201 27.4433
rtibia 38.2051
rfoot -16.7072 3.59263
rtoes -11.0373
lfemur -28.7507 0.80956 -16.9177
ltibia 73.6612
lfoot 8.81919 -8.06644
ltoes -11.1149
237
root 0.164376 16.3572 4.71764 16.9103 5.17348 -2.03012
lowerback -15.0798 -0.910755 3.95898
upperback -5.14295 -1.8847 2.89771
thorax 2.9705 -0.932498 0.478632
lowerneck -4.84686 -0.575776 0.169293
upperneck 8.5789 -0.448838 -3.76248
head 3.63467 -0.375174 -1.2932
rclavicle 2.28991e-014 -2.54444e-014
rhumerus -48.1385 -33.9388 -59.3912
rradius 15.9418
rwrist 20.1465
rhand -15.4151 -33.7116
rfingers 7.12502
rthumb 10.7643 -63.4158
lclavicle 2.28991e-014 -2.54444e-014
lhumerus -31.1627 2.82589 87.2343
lradius 36.7905
lwrist 10.1154
lhand -20.4686 -19.0866
lfingers 7.12502
lthumb 5.8874 10.8116
rfemur -39.239 -1.30827 27.2467
rtibia 37.9285
rfoot -17.2131 3.49567
rtoes -10.2472
lfemur -30.2252 1.06389 -17.2229
ltibia 74.5738
lfoot 8.60114 -7.61127
ltoes -4.21073
238
root 0.157823 16.3787 4.90549 16.8888 4.8019 -1.60503
lowerback -15.1134 -0.829303 3.31226
upperback -5.07068 -1.68404 2.76751
thorax 3.08533 -0.829367 0.73853
lowerneck -4.88766 -0.56259 0.0435386
upperneck 8.73528 -0.432657 -3.56841
head 3.69712 -0.365142 -1.20794
rclavicle -1.72958e-014 2.06736e-014
rhumerus -45.6171 -32.3184 -62.5507
rradius 16.5688
rwrist 18.2382
rhand -15.1318 -34.8576
rfingers 7.12502
rthumb 11.0376 -64.5474
lclavicle -1.72958e-014 2.06736e-014
lhumerus -31.3483 3.23053 87.3266
lradius 34.758
lwrist 9.48862
lhand -20.0486 -17.104
lfingers 7.12502
lthumb 6.29289 12.7826
rfemur -38.2875 -0.963293 26.698
rtibia 37.6722
rfoot -17.7006 3.25119
rtoes -10.0084
lfemur -31.6182 1.37308 -17.8801
ltibia 75.2022
lfoot 7.20078 -6.50544
ltoes -4.23881
